<svg xmlns="http://www.w3.org/2000/svg" width="512" height="512" viewBox="0 0 60 60" fill="#000" fill-rule="nonzero"><path d="M55.9 44H57a3 3 0 1 0 0-6H45.952c1.6-1.018 2.914-2.425 3.822-4.1a1.96 1.96 0 0 0-.064-1.941A1.99 1.99 0 0 0 47.992 31h-7.818a14.08 14.08 0 0 0 4.932-5H50a5 5 0 1 0 0-10h-3v-1a3 3 0 0 0-3-3H16a3 3 0 0 0-3 3v4a13.99 13.99 0 0 0 6.826 12h-7.818a1.99 1.99 0 0 0-1.718.969 1.96 1.96 0 0 0-.065 1.94A11.23 11.23 0 0 0 14.048 38H11c-3.054.001-5.97 1.27-8.05 3.507S-.2 46.742.027 49.788A11.2 11.2 0 0 0 11.311 60H57a3 3 0 1 0 0-6h-1.1a14.4 14.4 0 0 1 0-10zM50 18a3 3 0 1 1 0 6h-3.94a13.97 13.97 0 0 0 .94-5v-1zm-35 1v-4a1 1 0 0 1 1-1h28a1 1 0 0 1 1 1v4c-.007 6.624-5.376 11.993-12 12h-6c-6.624-.007-11.993-5.376-12-12zm-2.992 14l14.86-.007c.044 0 .087.007.13.007h6c.063 0 .124-.01.187-.01L48 32.984A10.03 10.03 0 0 1 39 38H21c-3.7.116-7.144-1.805-8.992-5zM58 57a1 1 0 0 1-1 1H11.3c-4.803.07-8.85-3.568-9.3-8.352A9 9 0 0 1 11 40h46a1 1 0 1 1 0 2H11a7.01 7.01 0 0 0-7 6.819 6.8 6.8 0 0 0 1.983 4.946A7.4 7.4 0 0 0 11.252 56H57a1 1 0 0 1 1 1zm-46.748-3a5.39 5.39 0 0 1-3.835-1.631c-.928-.925-1.44-2.2-1.417-3.5A5.01 5.01 0 0 1 11 44h42.757a16.89 16.89 0 0 0 0 10zM11 48h24a1 1 0 1 0 0-2H11a1 1 0 1 0 0 2zm38-2H39a1 1 0 1 0 0 2h10a1 1 0 1 0 0-2zm0 4H25a1 1 0 1 0 0 2h24a1 1 0 1 0 0-2zm-28 0H11a1 1 0 1 0 0 2h10a1 1 0 1 0 0-2zm6-23a8.01 8.01 0 0 1-8-8 1 1 0 1 0-2 0c.006 5.52 4.48 9.994 10 10a1 1 0 1 0 0-2zM22.537 7.845A2.82 2.82 0 0 0 24 5.5a2.81 2.81 0 0 0-1.478-2.354C22.2 2.94 22 2.7 22 2.5s.2-.444.522-.65a1 1 0 0 0-.058-1.734 1 1 0 0 0-1.001.034A2.82 2.82 0 0 0 20 2.5a2.81 2.81 0 0 0 1.478 2.354c.327.205.522.447.522.65s-.2.444-.537.658A2.81 2.81 0 0 0 20 8.5a2.82 2.82 0 0 0 1.463 2.345 1.001 1.001 0 1 0 1.059-1.7C22.2 8.947 22 8.705 22 8.5s.2-.44.537-.655zm16 0A2.82 2.82 0 0 0 40 5.5a2.81 2.81 0 0 0-1.478-2.354C38.2 2.94 38 2.7 38 2.5s.2-.444.522-.65a1.001 1.001 0 0 0-1.059-1.7A2.82 2.82 0 0 0 36 2.5a2.81 2.81 0 0 0 1.478 2.354c.327.205.522.447.522.65s-.2.444-.537.658A2.81 2.81 0 0 0 36 8.5a2.82 2.82 0 0 0 1.463 2.345 1 1 0 0 0 1.059-1.7C38.2 8.947 38 8.705 38 8.5s.2-.44.537-.655zm-8 0A2.82 2.82 0 0 0 32 5.5a2.81 2.81 0 0 0-1.478-2.354C30.2 2.94 30 2.7 30 2.5s.2-.444.522-.65a1 1 0 0 0-.058-1.734 1 1 0 0 0-1.001.034A2.82 2.82 0 0 0 28 2.5a2.81 2.81 0 0 0 1.478 2.354c.327.205.522.447.522.65s-.2.444-.537.658A2.81 2.81 0 0 0 28 8.5a2.82 2.82 0 0 0 1.463 2.345 1 1 0 0 0 1.059-1.7C30.2 8.947 30 8.705 30 8.5s.2-.44.537-.655z"/></svg>