<svg height="512" viewBox="0 0 60 60" width="512" xmlns="http://www.w3.org/2000/svg"><g id="Page-1" fill="none" fill-rule="evenodd"><g id="021---Coffee-Book" fill="rgb(0,0,0)" fill-rule="nonzero" transform="translate(-1 -1)"><path id="Shape" d="m56.9 45h1.1c1.6568542 0 3-1.3431458 3-3s-1.3431458-3-3-3h-11.048c1.5992071-1.0183878 2.9141608-2.4255466 3.822-4.09.323235-.6128342.2989026-1.3507896-.064-1.941-.36134-.6037498-1.0143873-.9720867-1.718-.969h-7.818c2.0399773-1.2232778 3.7367692-2.9434642 4.932-5h4.894c2.7614237 0 5-2.2385763 5-5s-2.2385763-5-5-5h-3v-1c0-1.6568542-1.3431458-3-3-3h-28c-1.6568542 0-3 1.3431458-3 3v4c.0060206 4.9222556 2.598186 9.4792412 6.826 12h-7.818c-.7036127-.0030867-1.35666.3652502-1.718.969-.3626212.5902117-.3873231 1.3278509-.065 1.941.9085452 1.6642648 2.2237629 3.0713379 3.823 4.09h-3.048c-3.05401531.0011405-5.97022083 1.2713251-8.05107692 3.5067331-2.08085609 2.2354079-3.1392149 5.2349913-2.92192308 8.2812669.51584844 5.8291998 5.43239982 10.2786701 11.284 10.212h45.689c1.6568542 0 3-1.3431458 3-3s-1.3431458-3-3-3h-1.1c-1.1945687-3.2263088-1.1945687-6.7736912 0-10zm-5.9-26c1.6568542 0 3 1.3431458 3 3s-1.3431458 3-3 3h-3.939c.6180651-1.5946695.9364005-3.289746.939-5v-1zm-35 1v-4c0-.5522847.4477153-1 1-1h28c.5522847 0 1 .4477153 1 1v4c-.0071648 6.624447-5.375553 11.9928352-12 12h-6c-6.624447-.0071648-11.9928352-5.375553-12-12zm-2.992 14 14.861-.007c.044 0 .087.007.131.007h6c.063 0 .124-.009.187-.009l14.813-.007c-1.8460039 3.2031956-5.3047329 5.1308605-9 5.016h-18c-3.6892956.1160046-7.1438451-1.804897-8.992-5zm45.992 24c0 .5522847-.4477153 1-1 1h-45.689c-4.80315755.0712277-8.85102388-3.5683223-9.289-8.352-.17998273-2.493272.68510933-4.9490802 2.38802241-6.7790764 1.70291309-1.8299961 4.09021786-2.8693009 6.58997759-2.8689236h46c.5522847 0 1 .4477153 1 1s-.4477153 1-1 1h-46c-3.79446656.003478-6.89714114 3.0259262-7 6.819-.03882166 1.8496814.67714291 3.6354407 1.983 4.946 1.38547888 1.4215424 3.2839891 2.2268509 5.269 2.235h45.748c.5522847 0 1 .4477153 1 1zm-46.748-3c-1.4452592-.0077256-2.82691648-.5953352-3.835-1.631-.92793064-.9254881-1.43946743-2.1886265-1.417-3.499.07570557-2.7082448 2.2907008-4.8656501 5-4.87h42.757c-1.0093364 3.2569263-1.0093364 6.7430737 0 10z"/><path id="Shape" d="m12 49h24c.5522847 0 1-.4477153 1-1s-.4477153-1-1-1h-24c-.5522847 0-1 .4477153-1 1s.4477153 1 1 1z"/><path id="Shape" d="m50 47h-10c-.5522847 0-1 .4477153-1 1s.4477153 1 1 1h10c.5522847 0 1-.4477153 1-1s-.4477153-1-1-1z"/><path id="Shape" d="m50 51h-24c-.5522847 0-1 .4477153-1 1s.4477153 1 1 1h24c.5522847 0 1-.4477153 1-1s-.4477153-1-1-1z"/><path id="Shape" d="m22 51h-10c-.5522847 0-1 .4477153-1 1s.4477153 1 1 1h10c.5522847 0 1-.4477153 1-1s-.4477153-1-1-1z"/><path id="Shape" d="m28 28c-4.4162219-.0049599-7.9950401-3.5837781-8-8 0-.5522847-.4477153-1-1-1s-1 .4477153-1 1c.0060624 5.5203344 4.4796656 9.9939376 10 10 .5522847 0 1-.4477153 1-1s-.4477153-1-1-1z"/><path id="Shape" d="m23.537 8.845c.8642583-.47197086 1.419061-1.36124791 1.463-2.345-.0458752-.98952831-.6066906-1.88273495-1.478-2.354-.322-.205-.522-.446-.522-.646s.2-.444.522-.649c.3036758-.18917213.4833616-.52598347.4713716-.88356046-.01199-.35757698-.2138342-.68159516-.5295-.85000001-.3156657-.16840485-.6971958-.15561167-1.0008716.03356047-.8654425.47269947-1.4204347 1.36379763-1.463 2.349.0458752.98952831.6066906 1.88273495 1.478 2.354.327.205.522.447.522.649s-.2.444-.537.658c-.8624863.47087556-1.4170056 1.35742429-1.463 2.339.043939.9837521.5987417 1.8730291 1.463 2.345.469442.2924348 1.0870652.148942 1.3795-.3205s.148942-1.0870652-.3205-1.3795c-.322-.198-.522-.44-.522-.645s.2-.441.537-.655z"/><path id="Shape" d="m39.537 8.845c.8642583-.47197086 1.419061-1.36124791 1.463-2.345-.0458752-.98952831-.6066906-1.88273495-1.478-2.354-.322-.205-.522-.446-.522-.646s.2-.444.522-.649c.469442-.29243478.6129348-.91005796.3205-1.3795s-.910058-.61293477-1.3795-.3205c-.8654425.47269947-1.4204347 1.36379763-1.463 2.349.0458752.98952831.6066906 1.88273495 1.478 2.354.327.205.522.447.522.649s-.2.444-.537.658c-.8624863.47087556-1.4170056 1.35742429-1.463 2.339.043939.9837521.5987417 1.8730291 1.463 2.345.3036758.1891721.6852059.2019653 1.0008716.0335605.3156658-.1684049.51751-.492423.5295-.85s-.1676958-.6943884-.4713716-.8835605c-.322-.198-.522-.44-.522-.645s.2-.441.537-.655z"/><path id="Shape" d="m31.537 8.845c.8642583-.47197086 1.419061-1.36124791 1.463-2.345-.0458752-.98952831-.6066906-1.88273495-1.478-2.354-.322-.205-.522-.446-.522-.646s.2-.444.522-.649c.3036758-.18917213.4833616-.52598347.4713716-.88356046-.01199-.35757698-.2138342-.68159516-.5295-.85000001-.3156657-.16840485-.6971958-.15561167-1.0008716.03356047-.8654425.47269947-1.4204347 1.36379763-1.463 2.349.0458752.98952831.6066906 1.88273495 1.478 2.354.327.205.522.447.522.649s-.2.444-.537.658c-.8624863.47087556-1.4170056 1.35742429-1.463 2.339.043939.9837521.5987417 1.8730291 1.463 2.345.3036758.1891721.6852059.2019653 1.0008716.0335605.3156658-.1684049.51751-.4924231.5295-.85.01199-.357577-.1676958-.6943884-.4713716-.8835605-.322-.198-.522-.44-.522-.645s.2-.441.537-.655z"/></g></g></svg>